{"title":"PINK FLOYD Live at POMPEII","uid":12341286,"size":1702789209,"categoryP":"video","categoryS":"music_videos","magnet":"?xt=urn:btih:e14f5f20933f6f46830e81e7fc7825c2cd4fafff&amp;dn=PINK+FLOYD+Live+at+POMPEII&amp;tr=udp%3A%2F%2Ftracker.openbittorrent.com%3A80&amp;tr=udp%3A%2F%2Fopen.demonii.com%3A1337&amp;tr=udp%3A%2F%2Ftracker.coppersurfer.tk%3A6969&amp;tr=udp%3A%2F%2Fexodus.desync.com%3A6969","seeders":0,"leechers":0,"uploader":"sparko","files":1,"time":1441303735,"description":"PINK FLOYD Live at POMPEII\n\nGeneral\nFormat : Matroska\nFormat version : Version 2\nFile size : 1.59 GiB\nDuration : 1h 31mn\nOverall bit rate : 2 477 Kbps\nEncoded date : UTC 2015-09-03T15:20:05Z\nWriting application : HandBrake 0.10.2 2015060900\nWriting library : Lavf55.12.0\n\nVideo\nID : 1\nFormat : AVC\nFormat/Info : Advanced Video Codec\nFormat profile : Main@L4\nFormat settings, CABAC : Yes\nFormat settings, ReFrames : 4 frames\nCodec ID : V_MPEG4/ISO/AVC\nDuration : 1h 31mn\nBit rate : 2 203 Kbps\nWidth : 712 pixels\nHeight : 576 pixels\nDisplay aspect ratio : 16:9\nOriginal display aspect ratio : 16:9\nFrame rate mode : Constant\nFrame rate : 25.000 fps\nColor space : YUV\nChroma subsampling : 4:2:0\nBit depth : 8 bits\nScan type : Progressive\nBits/(Pixel*Frame) : 0.215\nStream size : 1.41 GiB (89%)\nWriting library : x264 core 142 r2479 dd79a61\nEncoding settings : cabac=1 / ref=1 / deblock=1:0:0 / analyse=0x1:0x111 / me=hex / subme=2 / psy=1 / psy_rd=1.00:0.00 / mixed_ref=0 / me_range=16 / chroma_me=1 / trellis=0 / 8x8dct=0 / cqm=0 / deadzone=21,11 / fast_pskip=1 / chroma_qp_offset=0 / threads=12 / lookahead_threads=4 / sliced_threads=0 / nr=0 / decimate=1 / interlaced=0 / bluray_compat=0 / constrained_intra=0 / bframes=3 / b_pyramid=2 / b_adapt=1 / b_bias=0 / direct=1 / weightb=1 / open_gop=0 / weightp=1 / keyint=250 / keyint_min=25 / scenecut=40 / intra_refresh=0 / rc_lookahead=10 / rc=crf / mbtree=1 / crf=18.0 / qcomp=0.60 / qpmin=0 / qpmax=69 / qpstep=4 / vbv_maxrate=20000 / vbv_bufsize=25000 / crf_max=0.0 / nal_hrd=none / filler=0 / ip_ratio=1.40 / aq=1:1.00\nDefault : Yes\nForced : No\nColor range : Limited\nColor primaries : BT.601 PAL\nTransfer characteristics : BT.709\nMatrix coefficients : BT.601\n\nAudio\nID : 2\nFormat : AC-3\nFormat/Info : Audio Coding 3\nMode extension : CM (complete main)\nFormat settings, Endianness : Big\nCodec ID : A_AC3\nDuration : 1h 31mn\nBit rate mode : Constant\nBit rate : 224 Kbps\nChannel(s) : 2 channels\nChannel positions : Front: L R\nSampling rate : 48.0 KHz\nBit depth : 16 bits\nCompression mode : Lossy\nStream size : 147 MiB (9%)\nTitle : Stereo\nLanguage : English\nDefault : Yes\nForced : No\n\nText #1\nID : 3\nFormat : VobSub\nCodec ID : S_VOBSUB\nCodec ID/Info : Picture based subtitle format used on DVDs\nLanguage : English\nDefault : No\nForced : No\n\nText #2\nID : 4\nFormat : VobSub\nCodec ID : S_VOBSUB\nCodec ID/Info : Picture based subtitle format used on DVDs\nLanguage : Czech\nDefault : No\nForced : No\n\nText #3\nID : 5\nFormat : VobSub\nCodec ID : S_VOBSUB\nCodec ID/Info : Picture based subtitle format used on DVDs\nLanguage : French\nDefault : No\nForced : No\n\nText #4\nID : 6\nFormat : VobSub\nCodec ID : S_VOBSUB\nCodec ID/Info : Picture based subtitle format used on DVDs\nLanguage : German\nDefault : No\nForced : No\n\nText #5\nID : 7\nFormat : VobSub\nCodec ID : S_VOBSUB\nCodec ID/Info : Picture based subtitle format used on DVDs\nLanguage : Italian\nDefault : No\nForced : No\n\nText #6\nID : 8\nFormat : VobSub\nCodec ID : S_VOBSUB\nCodec ID/Info : Picture based subtitle format used on DVDs\nLanguage : Portuguese\nDefault : No\nForced : No\n\nText #7\nID : 9\nFormat : VobSub\nCodec ID : S_VOBSUB\nCodec ID/Info : Picture based subtitle format used on DVDs\nLanguage : Spanish\nDefault : No\nForced : No\n\nMenu\n00:00:00.000 : :Chapter 1\n00:18:47.960 : :Chapter 2\n00:27:44.320 : :Chapter 3\n00:40:02.200 : :Chapter 4\n00:44:26.360 : :Chapter 5\n00:55:49.120 : :Chapter 6\n00:57:53.920 : :Chapter 7\n01:04:51.520 : :Chapter 8\n01:17:08.880 : :Chapter 9","torrent":{"xt":"urn:btih:e14f5f20933f6f46830e81e7fc7825c2cd4fafff","amp;dn":"PINK+FLOYD+Live+at+POMPEII","amp;tr":["udp%3A%2F%2Ftracker.openbittorrent.com%3A80","udp%3A%2F%2Fopen.demonii.com%3A1337","udp%3A%2F%2Ftracker.coppersurfer.tk%3A6969","udp%3A%2F%2Fexodus.desync.com%3A6969"],"infoHash":"e14f5f20933f6f46830e81e7fc7825c2cd4fafff","infoHashBuffer":{"type":"Buffer","data":[225,79,95,32,147,63,111,70,131,14,129,231,252,120,37,194,205,79,175,255]},"announce":[],"urlList":[]}}